# xmcd CD database file
#
# Track frame offsets:
#	150
#	12430
#	27492
#	43182
#	56062
#	76397
#	91290
#	105165
#	119000
#	134917
#	150122
#	165937
#
# Disc length: 2433 seconds
#
# Revision: 2
# Processed by: cddbd v1.5.2PL0 Copyright (c) Steve Scherf et al.
# Submitted via: CDex 1.60beta1
#
DISCID=93097f0c
DTITLE=Prairie Oyster - Only One Moon
DYEAR=1994
DGENRE=Country
TTITLE0=Ancient History
TTITLE1=Louisiette
TTITLE2=Such A Lonely One
TTITLE3=She Don't Get The Blues
TTITLE4=Don't Cry Little Angel
TTITLE5=Price To Pay
TTITLE6=Only One Moon
TTITLE7=Your Turn To Cry
TTITLE8=Always Believing
TTITLE9=Brand New Hard Time Blues
TTITLE10=Black-Eyed Susan
TTITLE11=All Fall Down
EXTD=YEAR: 1994
EXTT0=
EXTT1=
EXTT2=
EXTT3=
EXTT4=
EXTT5=
EXTT6=
EXTT7=
EXTT8=
EXTT9=
EXTT10=
EXTT11=
PLAYORDER=
